<?xml version="1.0" encoding="UTF-8" standalone="no"?>
<!DOCTYPE svg PUBLIC "-//W3C//DTD SVG 1.1//EN" "http://www.w3.org/Graphics/SVG/1.1/DTD/svg11.dtd">
<svg width="100%" height="100%" viewBox="0 0 512 512" version="1.1" xmlns="http://www.w3.org/2000/svg" xmlns:xlink="http://www.w3.org/1999/xlink" xml:space="preserve" xmlns:serif="http://www.serif.com/" style="fill-rule:evenodd;clip-rule:evenodd;stroke-linecap:round;stroke-linejoin:round;stroke-miterlimit:1.5;">
    <g transform="matrix(1.49586,0,0,1.38999,-118.466,-76.8686)">
        <ellipse cx="250.336" cy="239.476" rx="153.569" ry="148.788" style="fill:rgb(151,131,104);stroke:black;stroke-width:5.19px;"/>
    </g>
    <g transform="matrix(1.50317,0,0,1.50317,-129.189,-88.4763)">
        <circle cx="181.976" cy="229.166" r="50.275"/>
    </g>
    <g transform="matrix(1.50317,0,0,1.50317,94.1066,-88.4763)">
        <circle cx="181.976" cy="229.166" r="50.275"/>
    </g>
    <g transform="matrix(1.70705,0,0,1.70705,-183.013,-133.132)">
        <clipPath id="_clip1">
            <rect x="241.504" y="242.429" width="15.672" height="78.959"/>
        </clipPath>
        <g clip-path="url(#_clip1)">
            <ellipse cx="256.925" cy="281.908" rx="15.422" ry="39.48"/>
        </g>
    </g>
    <g transform="matrix(-1.70705,0,0,1.70705,695.013,-133.154)">
        <clipPath id="_clip2">
            <rect x="241.504" y="242.429" width="15.672" height="78.959"/>
        </clipPath>
        <g clip-path="url(#_clip2)">
            <ellipse cx="256.925" cy="281.908" rx="15.422" ry="39.48"/>
        </g>
    </g>
    <g transform="matrix(0.964642,-2.34084,2.07153,0.85366,-321.288,271.965)">
        <path d="M113.247,104.999C103.062,104.999 94.793,127.664 94.793,155.582C94.793,183.499 103.062,206.165 113.247,206.165C110.191,194.362 107.711,175.76 107.711,155.582C107.711,135.404 110.191,116.801 113.247,104.999Z"/>
    </g>
    <g transform="matrix(-0.964642,-2.34084,-2.07153,0.85366,833.288,271.965)">
        <path d="M113.247,104.999C103.062,104.999 94.793,127.664 94.793,155.582C94.793,183.499 103.062,206.165 113.247,206.165C110.191,194.362 107.711,175.76 107.711,155.582C107.711,135.404 110.191,116.801 113.247,104.999Z"/>
    </g>
    <g transform="matrix(1.28089,1.12843,-1.12843,1.28089,159.887,-307.488)">
        <path d="M196.452,236.761C186.102,236.761 177.699,245.828 177.699,256.995C177.699,268.162 186.102,277.228 196.452,277.228C193.347,272.507 190.826,265.066 190.826,256.995C190.826,248.923 193.347,241.483 196.452,236.761Z" style="fill:white;"/>
    </g>
    <g transform="matrix(1.28089,1.12843,-1.12843,1.28089,383.183,-307.488)">
        <path d="M196.452,236.761C186.102,236.761 177.699,245.828 177.699,256.995C177.699,268.162 186.102,277.228 196.452,277.228C193.347,272.507 190.826,265.066 190.826,256.995C190.826,248.923 193.347,241.483 196.452,236.761Z" style="fill:white;"/>
    </g>
</svg>
